<!DOCTYPE svg PUBLIC "-//W3C//DTD SVG 1.1//EN" "http://www.w3.org/Graphics/SVG/1.1/DTD/svg11.dtd">
<!-- Uploaded to: SVG Repo, www.svgrepo.com, Transformed by: SVG Repo Mixer Tools -->
<svg height="800px" width="800px" version="1.1" id="Capa_1" xmlns="http://www.w3.org/2000/svg" xmlns:xlink="http://www.w3.org/1999/xlink" viewBox="0 0 286.458 286.458" xml:space="preserve" fill="#000000">
<g id="SVGRepo_bgCarrier" stroke-width="0"/>
<g id="SVGRepo_tracerCarrier" stroke-linecap="round" stroke-linejoin="round"/>
<g id="SVGRepo_iconCarrier"> <path style="fill:#ffffff;" d="M159.659,72.071H83.497l45.125-45.125c1.416-1.417,2.197-3.3,2.197-5.304s-0.781-3.887-2.197-5.304 L114.48,2.196C113.063,0.78,111.18,0,109.176,0c-2.003,0-3.887,0.78-5.304,2.197l-82.07,82.071c-2.924,2.924-2.924,7.683,0,10.607 l82.07,82.071c1.417,1.417,3.301,2.197,5.304,2.197c2.004,0,3.887-0.78,5.304-2.197l14.142-14.142 c1.416-1.417,2.197-3.3,2.197-5.304c0-2.003-0.781-3.887-2.197-5.304l-45.125-45.125h76.162c39.806,0,72.191,32.385,72.191,72.191 c0,39.809-32.385,72.195-72.191,72.195c-4.136,0-7.5,3.364-7.5,7.5v20c0,4.135,3.364,7.5,7.5,7.5 c59.105,0,107.191-48.087,107.191-107.195C266.85,120.157,218.764,72.071,159.659,72.071z"/> </g>
</svg>